<?xml version="1.0" encoding="UTF-8" standalone="no"?>
<svg
   xmlns:dc="http://purl.org/dc/elements/1.1/"
   xmlns:cc="http://creativecommons.org/ns#"
   xmlns:rdf="http://www.w3.org/1999/02/22-rdf-syntax-ns#"
   xmlns:svg="http://www.w3.org/2000/svg"
   xmlns="http://www.w3.org/2000/svg"
   xmlns:xlink="http://www.w3.org/1999/xlink"
   xmlns:sodipodi="http://sodipodi.sourceforge.net/DTD/sodipodi-0.dtd"
   xmlns:inkscape="http://www.inkscape.org/namespaces/inkscape"
   width="210mm"
   height="297mm"
   viewBox="0 0 210 297"
   version="1.1"
   id="svg8"
   inkscape:version="1.0.2 (1.0.2+r75+1)"
   sodipodi:docname="FractionationDrawing.svg">
  <defs
     id="defs2">
    <marker
       style="overflow:visible;"
       id="Arrow1Lend"
       refX="0.0"
       refY="0.0"
       orient="auto"
       inkscape:stockid="Arrow1Lend"
       inkscape:isstock="true">
      <path
         transform="scale(0.8) rotate(180) translate(12.5,0)"
         style="fill-rule:evenodd;stroke:#000000;stroke-width:1pt;stroke-opacity:1;fill:#000000;fill-opacity:1"
         d="M 0.0,0.0 L 5.0,-5.0 L -12.5,0.0 L 5.0,5.0 L 0.0,0.0 z "
         id="path1387" />
    </marker>
    <linearGradient
       inkscape:collect="always"
       id="linearGradient880">
      <stop
         style="stop-color:#0029ff;stop-opacity:1;"
         offset="0"
         id="stop876" />
      <stop
         style="stop-color:#0029ff;stop-opacity:0;"
         offset="1"
         id="stop878" />
    </linearGradient>
    <linearGradient
       inkscape:collect="always"
       xlink:href="#linearGradient880"
       id="linearGradient882"
       x1="71.749382"
       y1="37.709969"
       x2="72.054825"
       y2="82.304909"
       gradientUnits="userSpaceOnUse"
       gradientTransform="matrix(1.0000403,0,0,0.95400115,-0.00283735,2.2500403)" />
    <linearGradient
       inkscape:collect="always"
       xlink:href="#linearGradient880"
       id="linearGradient956"
       gradientUnits="userSpaceOnUse"
       gradientTransform="matrix(1.0000403,0,0,0.95400115,-0.00283735,2.2500403)"
       x1="71.749382"
       y1="37.709969"
       x2="71.807823"
       y2="90.532494" />
  </defs>
  <sodipodi:namedview
     id="base"
     pagecolor="#ffffff"
     bordercolor="#666666"
     borderopacity="1.0"
     inkscape:pageopacity="0.0"
     inkscape:pageshadow="2"
     inkscape:zoom="2.8"
     inkscape:cx="277.35559"
     inkscape:cy="296.81202"
     inkscape:document-units="mm"
     inkscape:current-layer="layer1"
     inkscape:document-rotation="0"
     showgrid="false"
     showguides="false"
     inkscape:window-width="1680"
     inkscape:window-height="1013"
     inkscape:window-x="1366"
     inkscape:window-y="0"
     inkscape:window-maximized="1" />
  <metadata
     id="metadata5">
    <rdf:RDF>
      <cc:Work
         rdf:about="">
        <dc:format>image/svg+xml</dc:format>
        <dc:type
           rdf:resource="http://purl.org/dc/dcmitype/StillImage" />
        <dc:title></dc:title>
      </cc:Work>
    </rdf:RDF>
  </metadata>
  <g
     inkscape:label="Layer 1"
     inkscape:groupmode="layer"
     id="layer1">
    <g
       id="rect833"
       style="opacity:0.8"
       transform="translate(-0.146484,0.14649)">
      <path
         style="color:#000000;font-style:normal;font-variant:normal;font-weight:normal;font-stretch:normal;font-size:medium;line-height:normal;font-family:sans-serif;font-variant-ligatures:normal;font-variant-position:normal;font-variant-caps:normal;font-variant-numeric:normal;font-variant-alternates:normal;font-variant-east-asian:normal;font-feature-settings:normal;font-variation-settings:normal;text-indent:0;text-align:start;text-decoration:none;text-decoration-line:none;text-decoration-style:solid;text-decoration-color:#000000;letter-spacing:normal;word-spacing:normal;text-transform:none;writing-mode:lr-tb;direction:ltr;text-orientation:mixed;dominant-baseline:auto;baseline-shift:baseline;text-anchor:start;white-space:normal;shape-padding:0;shape-margin:0;inline-size:0;clip-rule:nonzero;display:inline;overflow:visible;visibility:visible;isolation:auto;mix-blend-mode:normal;color-interpolation:sRGB;color-interpolation-filters:linearRGB;solid-color:#000000;solid-opacity:1;vector-effect:none;fill:url(#linearGradient956);fill-opacity:1;fill-rule:nonzero;stroke:none;stroke-width:0.146512;stroke-linecap:butt;stroke-linejoin:miter;stroke-miterlimit:4;stroke-dasharray:none;stroke-dashoffset:0;stroke-opacity:1;color-rendering:auto;image-rendering:auto;shape-rendering:auto;text-rendering:auto;enable-background:accumulate;stop-color:#000000;stop-opacity:1"
         d="M 27.130182,48.951317 H 113.66165 V 105.99837 H 27.130182 Z"
         id="path896" />
      <path
         style="color:#000000;font-style:normal;font-variant:normal;font-weight:normal;font-stretch:normal;font-size:medium;line-height:normal;font-family:sans-serif;font-variant-ligatures:normal;font-variant-position:normal;font-variant-caps:normal;font-variant-numeric:normal;font-variant-alternates:normal;font-variant-east-asian:normal;font-feature-settings:normal;font-variation-settings:normal;text-indent:0;text-align:start;text-decoration:none;text-decoration-line:none;text-decoration-style:solid;text-decoration-color:#000000;letter-spacing:normal;word-spacing:normal;text-transform:none;writing-mode:lr-tb;direction:ltr;text-orientation:mixed;dominant-baseline:auto;baseline-shift:baseline;text-anchor:start;white-space:normal;shape-padding:0;shape-margin:0;inline-size:0;clip-rule:nonzero;display:inline;overflow:visible;visibility:visible;isolation:auto;mix-blend-mode:normal;color-interpolation:sRGB;color-interpolation-filters:linearRGB;solid-color:#000000;solid-opacity:1;vector-effect:none;fill:#000000;fill-opacity:1;fill-rule:nonzero;stroke:none;stroke-linecap:butt;stroke-linejoin:miter;stroke-miterlimit:4;stroke-dasharray:none;stroke-dashoffset:0;stroke-opacity:1;color-rendering:auto;image-rendering:auto;shape-rendering:auto;text-rendering:auto;enable-background:accumulate;stop-color:#000000;stop-opacity:1"
         d="m 27.056641,48.878906 v 0.07227 57.121098 H 113.73438 V 48.878906 Z m 0.146484,0.146485 H 113.58789 V 105.92578 H 27.203125 Z"
         id="path898" />
    </g>
    <path
       style="fill:#0063be;stroke:#0063be;stroke-width:0.265;stroke-linecap:butt;stroke-linejoin:miter;stroke-opacity:1;fill-opacity:1;stroke-miterlimit:4;stroke-dasharray:none"
       d="m 75.732869,81.848755 c 0,0 2.287191,-1.780905 3.770043,-0.751459 1.482854,1.029446 1.482854,1.029446 1.482854,1.029446 0,0 -0.143195,-0.01064 0,0 0.143193,0.01064 2.751289,1.251741 4.368316,-0.134752 1.617028,-1.386493 4.181144,-0.968722 5.63876,0.235958 1.457619,1.204677 4.303718,0.665816 5.609365,-0.638029 1.305648,-1.303843 4.788403,0.330816 5.602453,0.908944 0.81404,0.578128 3.545,0.739965 4.9085,-0.877067 1.36349,-1.617036 5.00406,-0.860952 5.9334,0.816824 0.92934,1.677776 0.62935,0.05601 0.62935,0.05601 l -0.007,19.66502 c 0,0 -6.05477,0.56923 -8.87865,-1.03655 -2.82388,-1.60578 -16.685784,-4.083497 -19.825385,-8.098273 -3.139601,-4.014777 -3.817318,-7.568364 -7.257092,-8.364244 -3.439774,-0.79588 -4.775126,-1.27838 -5.92337,-2.35507 -1.148244,-1.076687 3.948049,-0.456758 3.948049,-0.456758 z"
       id="path930" />
    <path
       style="fill:#ffffff;stroke:#000000;stroke-width:0.1;stroke-linecap:butt;stroke-linejoin:miter;stroke-opacity:1;fill-opacity:1;stroke-miterlimit:4;stroke-dasharray:none"
       d="m 27.205866,89.849189 c 0,0 3.97906,3.498511 9.679894,3.07254 5.700835,-0.425974 11.406545,-1.73641 15.795676,-3.870116 4.389127,-2.133706 6.511829,-6.289421 6.511829,-6.289421 0,0 -2.08797,-4.83426 -9.389631,-6.71268 -7.301661,-1.878423 -17.649139,-0.732814 -17.649139,-0.732814 0,0 -4.90654,0.260921 -4.935607,3.062007 -0.03189,3.073583 -0.06584,11.589779 -0.03368,11.517138 z"
       id="path954"
       sodipodi:nodetypes="csscscssc" />
    <path
       style="fill:#bd8f5f;stroke:#000000;stroke-width:0.1;stroke-linecap:butt;stroke-linejoin:miter;stroke-opacity:1;fill-opacity:1;stroke-miterlimit:4;stroke-dasharray:none"
       d="m 27.205866,89.849189 -0.149225,16.223081 h 86.677739 l -0.0655,-3.91262 c 0,0 -5.03341,0.85251 -9.19641,-1.01873 -4.163,-1.871236 -16.973353,-4.96875 -18.814631,-7.199111 -1.841281,-2.230361 -4.554855,-7.330202 -6.873187,-8.854435 -2.318332,-1.524235 -5.053269,-0.873321 -7.374226,-3.107796 -2.320957,-2.234475 -12.217191,0.782614 -12.217191,0.782614 0,0 -2.5279,4.056018 -4.676222,5.236813 -2.148321,1.180793 -6.493052,3.108145 -8.330708,3.418806 -1.837655,0.31066 -9.196808,1.797486 -10.891795,1.600435 -1.694987,-0.197048 -6.742075,-1.407858 -8.088674,-3.169057 z"
       id="path958" />
    <path
       style="fill:#c8d7ff;fill-opacity:0.912367;stroke:#000000;stroke-width:0.117124;stroke-linecap:butt;stroke-linejoin:miter;stroke-miterlimit:4;stroke-dasharray:none;stroke-opacity:1"
       d="m 97.890459,55.254616 c 0,0 0.570063,-2.969654 2.608191,-3.643589 2.03813,-0.673935 3.93505,2.218335 3.64597,2.955997 -0.28907,0.737664 -0.20008,0.112575 -0.20008,0.112575 0,0 3.23318,0.285173 3.36213,1.300084 0.12895,1.014912 0.0148,0.893181 0.0148,0.893181 0,0 5.03849,0.162007 2.06613,3.578851 -2.97238,3.416844 -4.2139,0.173944 -4.2139,0.173944 0,0 -0.45494,3.023513 -2.45414,2.813859 -1.9992,-0.209654 -3.086068,-1.434414 -3.311189,-2.24385 -0.225122,-0.809435 -0.269653,-0.584538 -0.269653,-0.584538 0,0 -0.949449,1.796152 -2.102602,2.241274 -1.153155,0.445124 -2.872668,-0.464353 -3.223601,-1.44637 -0.350932,-0.982013 -0.675328,-1.303673 -0.675328,-1.303673 0,0 -1.11208,1.274496 -3.02725,-0.308425 -1.91517,-1.582918 0.542762,-4.207426 0.542762,-4.207426 0,0 2.462133,-0.980704 3.364746,-0.09377 0.902612,0.886939 0.877669,0.650953 0.877669,0.650953 0,0 -0.182132,-1.163212 0.615765,-2.351573 0.797895,-1.188361 2.37963,1.46249 2.37963,1.46249 z"
       id="path968" />
    <path
       style="fill:#c8d7ff;fill-opacity:0.912367;stroke:#000000;stroke-width:0.101434;stroke-linecap:butt;stroke-linejoin:miter;stroke-miterlimit:4;stroke-dasharray:none;stroke-opacity:1"
       d="m 67.990415,55.967597 c 0,0 0.512811,-2.475991 2.34625,-3.037894 1.833441,-0.561903 3.539853,1.849568 3.279805,2.464605 -0.260038,0.615037 -0.179986,0.09386 -0.179986,0.09386 0,0 2.908472,0.237767 3.024471,1.083963 0.116,0.846198 0.01331,0.744703 0.01331,0.744703 0,0 4.532474,0.135075 1.858628,2.983918 -2.673863,2.848842 -3.790697,0.145028 -3.790697,0.145028 0,0 -0.409251,2.520897 -2.207671,2.346095 -1.79842,-0.174802 -2.776134,-1.195963 -2.978646,-1.870842 -0.202513,-0.674878 -0.242572,-0.487367 -0.242572,-0.487367 0,0 -0.854096,1.497568 -1.891437,1.868695 -1.037344,0.371128 -2.584166,-0.387161 -2.899855,-1.205932 -0.315688,-0.818767 -0.607505,-1.086956 -0.607505,-1.086956 0,0 -1.000393,1.062629 -2.723223,-0.257154 -1.722829,-1.31978 0.488253,-3.508001 0.488253,-3.508001 0,0 2.21486,-0.817676 3.026824,-0.07818 0.811963,0.739498 0.789525,0.542741 0.789525,0.542741 0,0 -0.163841,-0.969845 0.553923,-1.960658 0.717763,-0.990813 2.140644,1.219372 2.140644,1.219372 z"
       id="path968-6" />
    <path
       style="fill:#c8d7ff;fill-opacity:0.912367;stroke:#000000;stroke-width:0.0880727;stroke-linecap:butt;stroke-linejoin:miter;stroke-miterlimit:4;stroke-dasharray:none;stroke-opacity:1"
       d="m 36.631741,56.339856 c 0,0 0.445634,-2.148036 2.038893,-2.635513 1.593261,-0.487477 3.076135,1.604586 2.850153,2.138159 -0.225973,0.533572 -0.156408,0.08143 -0.156408,0.08143 0,0 2.527464,0.206274 2.628268,0.940389 0.100802,0.734115 0.01157,0.646063 0.01157,0.646063 0,0 3.938724,0.117185 1.61515,2.588687 -2.32359,2.471502 -3.29412,0.125818 -3.29412,0.125818 0,0 -0.355639,2.186995 -1.918467,2.035346 C 38.843952,62.108586 37.994318,61.222682 37.818335,60.637193 37.64235,60.051705 37.60754,60.21438 37.60754,60.21438 c 0,0 -0.74221,1.299209 -1.643662,1.621179 -0.901451,0.32197 -2.245641,-0.335881 -2.519975,-1.046202 -0.274333,-0.710319 -0.527922,-0.942984 -0.527922,-0.942984 0,0 -0.869343,0.92188 -2.366483,-0.223093 -1.49714,-1.144971 0.424291,-3.043352 0.424291,-3.043352 0,0 1.924717,-0.709373 2.630313,-0.06783 0.705597,0.641549 0.686098,0.470853 0.686098,0.470853 0,0 -0.142378,-0.841385 0.48136,-1.70096 0.623736,-0.859577 1.860221,1.05786 1.860221,1.05786 z"
       id="path968-7" />
    <text
       xml:space="preserve"
       style="font-style:normal;font-variant:normal;font-weight:normal;font-stretch:normal;font-size:4.93889px;line-height:1.25;font-family:'CMU serif';-inkscape-font-specification:'CMU serif';letter-spacing:0px;word-spacing:0px;fill:#000000;fill-opacity:1;stroke:none;stroke-width:0.264583"
       x="35.799133"
       y="81.171059"
       id="text1001"><tspan
         sodipodi:role="line"
         x="35.799133"
         y="81.171059"
         style="font-style:normal;font-variant:normal;font-weight:normal;font-stretch:normal;font-size:4.93889px;font-family:'CMU serif';-inkscape-font-specification:'CMU serif';stroke-width:0.264583"
         id="tspan1003">Ice</tspan></text>
    <text
       xml:space="preserve"
       style="font-style:normal;font-variant:normal;font-weight:normal;font-stretch:normal;font-size:4.93889px;line-height:1.25;font-family:'CMU serif';-inkscape-font-specification:'CMU serif';letter-spacing:0px;word-spacing:0px;stroke-width:0.264583"
       x="27.382383"
       y="87.165451"
       id="text1009"><tspan
         sodipodi:role="line"
         id="tspan1007"
         x="27.382383"
         y="87.165451"
         style="font-style:normal;font-variant:normal;font-weight:normal;font-stretch:normal;font-size:4.93889px;font-family:'CMU serif';-inkscape-font-specification:'CMU serif';stroke-width:0.264583">-30 to -55</tspan></text>
    <text
       xml:space="preserve"
       style="font-style:normal;font-variant:normal;font-weight:normal;font-stretch:normal;font-size:4.93889px;line-height:1.25;font-family:'CMU serif';-inkscape-font-specification:'CMU serif';letter-spacing:0px;word-spacing:0px;stroke-width:0.264583"
       x="100.82656"
       y="99.536133"
       id="text1009-5"><tspan
         sodipodi:role="line"
         id="tspan1007-3"
         x="100.82656"
         y="99.536133"
         style="font-style:normal;font-variant:normal;font-weight:normal;font-stretch:normal;font-size:4.93889px;font-family:'CMU serif';-inkscape-font-specification:'CMU serif';stroke-width:0.264583">3 to 4</tspan></text>
    <text
       xml:space="preserve"
       style="font-style:normal;font-variant:normal;font-weight:normal;font-stretch:normal;font-size:4.93889px;line-height:1.25;font-family:'CMU serif';-inkscape-font-specification:'CMU serif';letter-spacing:0px;word-spacing:0px;stroke-width:0.264583"
       x="99.059547"
       y="86.042534"
       id="text1009-56"><tspan
         sodipodi:role="line"
         id="tspan1007-2"
         x="99.059547"
         y="86.042534"
         style="font-style:normal;font-variant:normal;font-weight:normal;font-stretch:normal;font-size:4.93889px;font-family:'CMU serif';-inkscape-font-specification:'CMU serif';stroke-width:0.264583">0 to -2</tspan></text>
    <text
       xml:space="preserve"
       style="font-style:normal;font-variant:normal;font-weight:normal;font-stretch:normal;font-size:4.93889px;line-height:1.25;font-family:'CMU serif';-inkscape-font-specification:'CMU serif';letter-spacing:0px;word-spacing:0px;stroke-width:0.264583"
       x="96.640343"
       y="59.6693"
       id="text1009-9"><tspan
         sodipodi:role="line"
         id="tspan1007-1"
         x="96.640343"
         y="59.6693"
         style="font-style:normal;font-variant:normal;font-weight:normal;font-stretch:normal;font-size:4.93889px;font-family:'CMU serif';-inkscape-font-specification:'CMU serif';stroke-width:0.264583">-10</tspan></text>
    <text
       xml:space="preserve"
       style="font-style:normal;font-variant:normal;font-weight:normal;font-stretch:normal;font-size:4.93889px;line-height:1.25;font-family:'CMU serif';-inkscape-font-specification:'CMU serif';letter-spacing:0px;word-spacing:0px;stroke-width:0.264583"
       x="66.63903"
       y="59.6693"
       id="text1009-9-2"><tspan
         sodipodi:role="line"
         id="tspan1007-1-7"
         x="66.63903"
         y="59.6693"
         style="font-style:normal;font-variant:normal;font-weight:normal;font-stretch:normal;font-size:4.93889px;font-family:'CMU serif';-inkscape-font-specification:'CMU serif';stroke-width:0.264583">-30</tspan></text>
    <text
       xml:space="preserve"
       style="font-style:normal;font-variant:normal;font-weight:normal;font-stretch:normal;font-size:4.93889px;line-height:1.25;font-family:'CMU serif';-inkscape-font-specification:'CMU serif';letter-spacing:0px;word-spacing:0px;stroke-width:0.264583"
       x="34.870125"
       y="59.723866"
       id="text1009-9-0"><tspan
         sodipodi:role="line"
         id="tspan1007-1-9"
         x="34.870125"
         y="59.723866"
         style="font-style:normal;font-variant:normal;font-weight:normal;font-stretch:normal;font-size:4.93889px;font-family:'CMU serif';-inkscape-font-specification:'CMU serif';stroke-width:0.264583">-40</tspan></text>
    <text
       xml:space="preserve"
       style="font-size:8.46667px;line-height:1.25;font-family:sans-serif;letter-spacing:0px;word-spacing:0px;stroke-width:0.264583;fill:#387bff;fill-opacity:1;"
       x="34.486893"
       y="72.861732"
       id="text1097"><tspan
         sodipodi:role="line"
         id="tspan1095"
         x="34.486893"
         y="72.861732"
         style="font-size:4.23333px;stroke-width:0.264583;fill:#387bff;fill-opacity:1;">*</tspan></text>
    <text
       xml:space="preserve"
       style="font-size:8.46667px;line-height:1.25;font-family:sans-serif;letter-spacing:0px;word-spacing:0px;stroke-width:0.264583;fill:#387bff;fill-opacity:1;"
       x="37.344051"
       y="74.937027"
       id="text1097-3"><tspan
         sodipodi:role="line"
         id="tspan1095-6"
         x="37.344051"
         y="74.937027"
         style="font-size:4.23333px;stroke-width:0.264583;fill:#387bff;fill-opacity:1;">*</tspan></text>
    <text
       xml:space="preserve"
       style="font-size:8.46667px;line-height:1.25;font-family:sans-serif;letter-spacing:0px;word-spacing:0px;stroke-width:0.264583;fill:#387bff;fill-opacity:1;"
       x="39.89539"
       y="71.251755"
       id="text1097-0"><tspan
         sodipodi:role="line"
         id="tspan1095-62"
         x="39.89539"
         y="71.251755"
         style="font-size:4.23333px;stroke-width:0.264583;fill:#387bff;fill-opacity:1;">*</tspan></text>
    <text
       xml:space="preserve"
       style="font-size:8.46667px;line-height:1.25;font-family:sans-serif;letter-spacing:0px;word-spacing:0px;stroke-width:0.264583;fill:#387bff;fill-opacity:1;"
       x="35.45417"
       y="69.456375"
       id="text1097-6"><tspan
         sodipodi:role="line"
         id="tspan1095-1"
         x="35.45417"
         y="69.456375"
         style="font-size:4.23333px;stroke-width:0.264583;fill:#387bff;fill-opacity:1;">*</tspan></text>
    <text
       xml:space="preserve"
       style="font-size:8.46667px;line-height:1.25;font-family:sans-serif;letter-spacing:0px;word-spacing:0px;stroke-width:0.264583;fill:#387bff;fill-opacity:1;"
       x="39.233932"
       y="68.322441"
       id="text1097-8"><tspan
         sodipodi:role="line"
         id="tspan1095-7"
         x="39.233932"
         y="68.322441"
         style="font-size:4.23333px;stroke-width:0.264583;fill:#387bff;fill-opacity:1;">*</tspan></text>
    <text
       xml:space="preserve"
       style="font-size:8.46667px;line-height:1.25;font-family:sans-serif;letter-spacing:0px;word-spacing:0px;stroke-width:0.264583;fill:#387bff;fill-opacity:1;"
       x="32.524853"
       y="66.149078"
       id="text1097-9"><tspan
         sodipodi:role="line"
         id="tspan1095-2"
         x="32.524853"
         y="66.149078"
         style="font-size:4.23333px;stroke-width:0.264583;fill:#387bff;fill-opacity:1;">*</tspan></text>
    <text
       xml:space="preserve"
       style="font-size:8.46667px;line-height:1.25;font-family:sans-serif;letter-spacing:0px;word-spacing:0px;stroke-width:0.264583;fill:#387bff;fill-opacity:1;"
       x="37.06057"
       y="66.149078"
       id="text1097-02"><tspan
         sodipodi:role="line"
         id="tspan1095-3"
         x="37.06057"
         y="66.149078"
         style="font-size:4.23333px;stroke-width:0.264583;fill:#387bff;fill-opacity:1;">*</tspan></text>
    <text
       xml:space="preserve"
       style="font-size:8.46667px;line-height:1.25;font-family:sans-serif;letter-spacing:0px;word-spacing:0px;stroke-width:0.264583;fill:#387bff;fill-opacity:1;"
       x="42.163246"
       y="66.716042"
       id="text1097-7"><tspan
         sodipodi:role="line"
         id="tspan1095-5"
         x="42.163246"
         y="66.716042"
         style="font-size:4.23333px;stroke-width:0.264583;fill:#387bff;fill-opacity:1;">*</tspan></text>
    <text
       xml:space="preserve"
       style="font-size:8.46667px;line-height:1.25;font-family:sans-serif;letter-spacing:0px;word-spacing:0px;stroke-width:0.264583;fill:#387bff;fill-opacity:1;"
       x="32.392559"
       y="74.275566"
       id="text1097-0-2"><tspan
         sodipodi:role="line"
         id="tspan1095-62-8"
         x="32.392559"
         y="74.275566"
         style="font-size:4.23333px;stroke-width:0.264583;fill:#387bff;fill-opacity:1;">*</tspan></text>
    <path
       style="fill:#3893ff;fill-opacity:1;stroke:#93c5ff;stroke-width:0.0345405;stroke-linecap:butt;stroke-linejoin:miter;stroke-miterlimit:4;stroke-dasharray:none;stroke-opacity:1"
       d="m 67.550676,64.151978 c 0,0 -0.131899,0.656423 -0.217736,0.892892 -0.08584,0.236467 -0.204129,0.87443 -0.06217,1.255476 0.141958,0.381047 0.329419,0.510523 0.512772,0.445382 0.183354,-0.06514 0.302758,-0.268809 0.382793,-0.473744 0.08003,-0.204937 0.08606,-0.665144 -0.0045,-1.027949 -0.09059,-0.362804 -0.411458,-0.921467 -0.46998,-1.460653 -0.05852,-0.539188 0.03353,0.346522 -0.141144,0.368596 z"
       id="path1231" />
    <path
       style="fill:#3893ff;fill-opacity:1;stroke:#93c5ff;stroke-width:0.0345405;stroke-linecap:butt;stroke-linejoin:miter;stroke-miterlimit:4;stroke-dasharray:none;stroke-opacity:1"
       d="m 69.59168,67.119807 c 0,0 -0.131899,0.656423 -0.217736,0.892892 -0.08584,0.236467 -0.204129,0.87443 -0.06217,1.255476 0.141958,0.381047 0.329419,0.510523 0.512772,0.445382 0.183354,-0.06514 0.302758,-0.268809 0.382793,-0.473744 0.08003,-0.204937 0.08606,-0.665144 -0.0045,-1.027949 -0.09059,-0.362804 -0.411458,-0.921467 -0.46998,-1.460653 -0.05852,-0.539188 0.03353,0.346522 -0.141144,0.368596 z"
       id="path1231-9" />
    <path
       style="fill:#3893ff;fill-opacity:1;stroke:#93c5ff;stroke-width:0.0345405;stroke-linecap:butt;stroke-linejoin:miter;stroke-miterlimit:4;stroke-dasharray:none;stroke-opacity:1"
       d="m 72.063923,63.845755 c 0,0 -0.131899,0.656423 -0.217736,0.892892 -0.08584,0.236467 -0.204129,0.87443 -0.06217,1.255476 0.141958,0.381047 0.329419,0.510523 0.512772,0.445382 0.183354,-0.06514 0.302758,-0.268809 0.382793,-0.473744 0.08003,-0.204937 0.08606,-0.665144 -0.0045,-1.027949 -0.09059,-0.362804 -0.411458,-0.921467 -0.46998,-1.460653 -0.05852,-0.539188 0.03353,0.346522 -0.141144,0.368596 z"
       id="path1231-7" />
    <path
       style="fill:#3893ff;fill-opacity:1;stroke:#93c5ff;stroke-width:0.0345405;stroke-linecap:butt;stroke-linejoin:miter;stroke-miterlimit:4;stroke-dasharray:none;stroke-opacity:1"
       d="m 66.250811,68.122068 c 0,0 -0.131899,0.656423 -0.217736,0.892892 -0.08584,0.236467 -0.204129,0.87443 -0.06217,1.255476 0.141958,0.381047 0.329419,0.510523 0.512772,0.445382 0.183354,-0.06514 0.302758,-0.268809 0.382793,-0.473744 0.08003,-0.204937 0.08606,-0.665144 -0.0045,-1.027949 -0.09059,-0.362804 -0.411458,-0.921467 -0.46998,-1.460653 -0.05852,-0.539188 0.03353,0.346522 -0.141144,0.368596 z"
       id="path1231-3" />
    <path
       style="fill:#3893ff;fill-opacity:1;stroke:#93c5ff;stroke-width:0.0345405;stroke-linecap:butt;stroke-linejoin:miter;stroke-miterlimit:4;stroke-dasharray:none;stroke-opacity:1"
       d="m 72.732097,69.057511 c 0,0 -0.131899,0.656423 -0.217736,0.892892 -0.08584,0.236467 -0.204129,0.87443 -0.06217,1.255476 0.141958,0.381047 0.329419,0.510523 0.512772,0.445382 0.183354,-0.06514 0.302758,-0.268809 0.382793,-0.473744 0.08003,-0.204937 0.08606,-0.665144 -0.0045,-1.027949 -0.09059,-0.362804 -0.411458,-0.921467 -0.46998,-1.460653 -0.05852,-0.539188 0.03353,0.346522 -0.141144,0.368596 z"
       id="path1231-6" />
    <text
       xml:space="preserve"
       style="font-style:normal;font-variant:normal;font-weight:normal;font-stretch:normal;font-size:4.23333px;line-height:1.25;font-family:'CMU serif';-inkscape-font-specification:'CMU serif';letter-spacing:0px;word-spacing:0px;stroke-width:0.264583"
       x="41.787094"
       y="71.819397"
       id="text1009-9-0-4"><tspan
         sodipodi:role="line"
         id="tspan1007-1-9-5"
         x="41.787094"
         y="71.819397"
         style="font-style:normal;font-variant:normal;font-weight:normal;font-stretch:normal;font-size:4.23333px;font-family:'CMU serif';-inkscape-font-specification:'CMU serif';stroke-width:0.264583">-30</tspan></text>
    <text
       xml:space="preserve"
       style="font-style:normal;font-variant:normal;font-weight:normal;font-stretch:normal;font-size:4.23333px;line-height:1.25;font-family:'CMU serif';-inkscape-font-specification:'CMU serif';letter-spacing:0px;word-spacing:0px;stroke-width:0.264583"
       x="74.57653"
       y="71.861732"
       id="text1009-9-0-0"><tspan
         sodipodi:role="line"
         id="tspan1007-1-9-3"
         x="74.57653"
         y="71.861732"
         style="font-style:normal;font-variant:normal;font-weight:normal;font-stretch:normal;font-size:4.23333px;font-family:'CMU serif';-inkscape-font-specification:'CMU serif';stroke-width:0.264583">-7</tspan></text>
    <path
       style="fill:none;stroke:#000000;stroke-width:0.265;stroke-linecap:butt;stroke-linejoin:miter;stroke-miterlimit:4;stroke-dasharray:none;stroke-opacity:1;marker-end:url(#Arrow1Lend)"
       d="m 98.337733,79.627066 -0.0436,-13.862031"
       id="path1382" />
    <text
       xml:space="preserve"
       style="font-style:normal;font-variant:normal;font-weight:normal;font-stretch:normal;font-size:4.93889px;line-height:1.25;font-family:'CMU serif';-inkscape-font-specification:'CMU serif';letter-spacing:0px;word-spacing:0px;stroke-width:0.264583"
       x="99.67659"
       y="75.579506"
       id="text1668"><tspan
         sodipodi:role="line"
         id="tspan1666"
         x="99.67659"
         y="75.579506"
         style="font-style:normal;font-variant:normal;font-weight:normal;font-stretch:normal;font-size:4.93889px;font-family:'CMU serif';-inkscape-font-specification:'CMU serif';stroke-width:0.264583">Vapor</tspan></text>
    <text
       xml:space="preserve"
       style="font-style:normal;font-variant:normal;font-weight:normal;font-stretch:normal;font-size:3.52778px;line-height:1.25;font-family:'CMU serif';-inkscape-font-specification:'CMU serif';letter-spacing:0px;word-spacing:0px;fill:#000000;fill-opacity:1;stroke:none;stroke-width:0.264583"
       x="86.663193"
       y="85.81282"
       id="text1001-0"><tspan
         sodipodi:role="line"
         x="86.663193"
         y="85.81282"
         style="font-style:normal;font-variant:normal;font-weight:normal;font-stretch:normal;font-size:3.52778px;font-family:'CMU serif';-inkscape-font-specification:'CMU serif';stroke-width:0.264583"
         id="tspan1003-6">Surface</tspan></text>
    <text
       xml:space="preserve"
       style="font-style:normal;font-variant:normal;font-weight:normal;font-stretch:normal;font-size:3.52778px;line-height:1.25;font-family:'CMU serif';-inkscape-font-specification:'CMU serif';letter-spacing:0px;word-spacing:0px;fill:#000000;fill-opacity:1;stroke:none;stroke-width:0.264583"
       x="89.301643"
       y="95.542389"
       id="text1001-3"><tspan
         sodipodi:role="line"
         x="89.301643"
         y="95.542389"
         style="font-style:normal;font-variant:normal;font-weight:normal;font-stretch:normal;font-size:3.52778px;font-family:'CMU serif';-inkscape-font-specification:'CMU serif';stroke-width:0.264583"
         id="tspan1003-2">Deep Ocean</tspan></text>
  </g>
</svg>
